<mxfile host="65bd71144e">
    <diagram id="DVDcuB0oNKl0HDUTzZRN" name="Page-1">
        <mxGraphModel dx="1852" dy="307" grid="1" gridSize="10" guides="1" tooltips="1" connect="1" arrows="1" fold="1" page="1" pageScale="1" pageWidth="850" pageHeight="1100" math="0" shadow="0">
            <root>
                <mxCell id="0"/>
                <mxCell id="1" parent="0"/>
                <mxCell id="2" value="" style="edgeStyle=none;html=1;" edge="1" parent="1" source="3" target="5">
                    <mxGeometry relative="1" as="geometry"/>
                </mxCell>
                <mxCell id="3" value="LO01_ESTSEQ13" style="ellipse;whiteSpace=wrap;html=1;" vertex="1" parent="1">
                    <mxGeometry x="-325" y="190" width="120" height="80" as="geometry"/>
                </mxCell>
                <mxCell id="4" value="" style="edgeStyle=none;html=1;" edge="1" parent="1" source="5" target="7">
                    <mxGeometry relative="1" as="geometry"/>
                </mxCell>
                <mxCell id="5" value="alimentoQuilos,alimentoGramas, alimentoDuracao:float;" style="rounded=0;whiteSpace=wrap;html=1;" vertex="1" parent="1">
                    <mxGeometry x="-370" y="290" width="210" height="60" as="geometry"/>
                </mxCell>
                <mxCell id="6" value="" style="edgeStyle=none;html=1;" edge="1" parent="1" source="7" target="9">
                    <mxGeometry relative="1" as="geometry"/>
                </mxCell>
                <mxCell id="7" value="alimentoQuilos" style="shape=parallelogram;perimeter=parallelogramPerimeter;whiteSpace=wrap;html=1;fixedSize=1;" vertex="1" parent="1">
                    <mxGeometry x="-375" y="370" width="220" height="60" as="geometry"/>
                </mxCell>
                <mxCell id="8" value="" style="edgeStyle=none;html=1;" edge="1" parent="1" source="9" target="10">
                    <mxGeometry relative="1" as="geometry"/>
                </mxCell>
                <mxCell id="9" value="&lt;span style=&quot;color: rgb(0, 0, 0); text-align: left;&quot;&gt;alimentosGramas = (alimentosQuilos*1000);&lt;/span&gt;&lt;br style=&quot;color: rgb(63, 63, 63); scrollbar-color: rgb(226, 226, 226) rgb(251, 251, 251); padding: 0px; margin: 0px; text-align: left;&quot;&gt;&lt;span style=&quot;color: rgb(0, 0, 0); text-align: left;&quot;&gt;&amp;nbsp; &amp;nbsp; alimentoDuracao = (alimentosGramas/50);&lt;/span&gt;" style="rounded=0;whiteSpace=wrap;html=1;" vertex="1" parent="1">
                    <mxGeometry x="-440" y="450" width="350" height="60" as="geometry"/>
                </mxCell>
                <mxCell id="10" value="alimentoDuracao" style="shape=display;whiteSpace=wrap;html=1;" vertex="1" parent="1">
                    <mxGeometry x="-325" y="530" width="120" height="40" as="geometry"/>
                </mxCell>
                <mxCell id="11" value="Teste de Mesa" style="swimlane;whiteSpace=wrap;html=1;" vertex="1" parent="1">
                    <mxGeometry x="5" y="160" width="370" height="480" as="geometry"/>
                </mxCell>
                <mxCell id="12" value="Massa de Dados&lt;br&gt;10" style="rounded=0;whiteSpace=wrap;html=1;" vertex="1" parent="11">
                    <mxGeometry x="10" y="400" width="170" height="60" as="geometry"/>
                </mxCell>
                <mxCell id="13" value="Saida&lt;br&gt;200" style="rounded=0;whiteSpace=wrap;html=1;" vertex="1" parent="11">
                    <mxGeometry x="190" y="400" width="170" height="60" as="geometry"/>
                </mxCell>
                <mxCell id="14" value="alimentoGramas= 10000" style="rounded=0;whiteSpace=wrap;html=1;" vertex="1" parent="11">
                    <mxGeometry x="10" y="130" width="350" height="60" as="geometry"/>
                </mxCell>
                <mxCell id="15" value="alimentoDuracao= 200" style="rounded=0;whiteSpace=wrap;html=1;" vertex="1" parent="11">
                    <mxGeometry x="10" y="200" width="350" height="60" as="geometry"/>
                </mxCell>
                <mxCell id="17" value="alimentoQuilos= 10" style="rounded=0;whiteSpace=wrap;html=1;" vertex="1" parent="1">
                    <mxGeometry x="15" y="220" width="350" height="60" as="geometry"/>
                </mxCell>
                <mxCell id="18" value="FluxoGrama" style="swimlane;whiteSpace=wrap;html=1;" vertex="1" parent="1">
                    <mxGeometry x="-450" y="160" width="370" height="480" as="geometry"/>
                </mxCell>
                <mxCell id="19" value="Receba a quantidade de alimento em quilos. Calcule e mostre quantos dias durará esse alimento sabendo que a pessoa consome 50g ao dia.&#xa;&#xa;&#xa;&#xa;&#xa;Declarar&#xa;    alimentosQuilos,alimentosGramas, alimentoDuracao: float; &#xa;Inicio&#xa;    Ler alimentosQuilos;&#xa;    alimentosGramas = (alimentosQuilos*1000);&#xa;    alimentoDuracao = (alimentosGramas/50);&#xa;    Mostrar alimentoDuracao;&#xa;Fim" style="text;whiteSpace=wrap;" vertex="1" parent="1">
                    <mxGeometry x="-680" y="180" width="220" height="460" as="geometry"/>
                </mxCell>
            </root>
        </mxGraphModel>
    </diagram>
</mxfile>